<svg height="100%" viewBox="0 0 64 64" width="100%" xmlns="http://www.w3.org/2000/svg"><g id="artwork"><path d="m61.63552 34.75237a6.36785 6.36785 0 0 0 -8.99592 0l-7.15074 7.15074a5.87952 5.87952 0 0 0 -5.851-5.40273h-20.71928a12.08846 12.08846 0 0 0 -8.60432 3.56438l-9.37482 9.37482a1.49943 1.49943 0 0 0 0 2.12105l11.49978 11.49978a1.50059 1.50059 0 0 0 1.06053.43944h2a1.50058 1.50058 0 0 0 1.06052-.43944l2.3105-2.31051h20.3316a13.02523 13.02523 0 0 0 9.27228-3.84074l13.16087-13.16088a6.35778 6.35778 0 0 0 0-8.99591zm-2.121 6.87486-13.16093 13.16088a10.04739 10.04739 0 0 1 -7.15122 2.96189h-20.95272a1.50055 1.50055 0 0 0 -1.06052.43945l-2.31051 2.3105h-.75779l-9.99983-9.99985 8.31429-8.31429a9.109 9.109 0 0 1 6.48327-2.68549h20.71935a2.87495 2.87495 0 0 1 0 5.74989h-9.87481a1.5 1.5 0 0 0 0 2.99994h12.99974a1.50056 1.50056 0 0 0 1.06053-.43945l10.93729-10.93728a3.36145 3.36145 0 0 1 4.75381 4.75381z"/><path d="m47.23962 20.60318-1.97462-1.14018a13.05789 13.05789 0 0 0 0-4.92578l1.97461-1.14014a1.4995 1.4995 0 0 0 .54883-2.04883l-3-5.19628a1.5 1.5 0 0 0 -2.04883-.54883l-1.97167 1.13871a13.50265 13.50265 0 0 0 -4.26856-2.458v-2.2837a1.50007 1.50007 0 0 0 -1.5-1.5h-6a1.50008 1.50008 0 0 0 -1.5 1.5v2.28369a13.50271 13.50271 0 0 0 -4.26855 2.458l-1.97168-1.13866a1.5 1.5 0 0 0 -2.04883.54883l-3 5.19628a1.49929 1.49929 0 0 0 .54883 2.04883l1.97461 1.14014a13.05735 13.05735 0 0 0 0 4.92578l-1.97461 1.14014a1.4995 1.4995 0 0 0 -.54883 2.04883l3 5.19628a1.50072 1.50072 0 0 0 2.04883.54883l1.97168-1.13867a13.50271 13.50271 0 0 0 4.26855 2.458v2.28369a1.50008 1.50008 0 0 0 1.5 1.5h6a1.50007 1.50007 0 0 0 1.5-1.5v-2.28368a13.50265 13.50265 0 0 0 4.26856-2.458l1.97168 1.13867a1.501 1.501 0 0 0 2.04883-.54883l3-5.19628a1.4993 1.4993 0 0 0 -.54883-2.04884zm-15.24024 1.897a5.5 5.5 0 1 1 5.5-5.5 5.50654 5.50654 0 0 1 -5.5 5.49997z" fill="#FFFFF"/></g></svg>