<?xml version="1.0" encoding="UTF-8"?>
<svg xmlns="http://www.w3.org/2000/svg" id="Outline" viewBox="0 0 24 24" width="100%" fill="current" height="100%"><path fill="current" d="M16,0H8A5.006,5.006,0,0,0,3,5V19a5.006,5.006,0,0,0,5,5h8a5.006,5.006,0,0,0,5-5V5A5.006,5.006,0,0,0,16,0Zm3,19a3,3,0,0,1-3,3H8a3,3,0,0,1-3-3V5A3,3,0,0,1,8,2h8a3,3,0,0,1,3,3Z"/><circle fill="current" cx="12" cy="6" r="1.5"/><path fill="current" d="M12,10a5,5,0,1,0,5,5A5.006,5.006,0,0,0,12,10Zm0,8a3,3,0,1,1,3-3A3,3,0,0,1,12,18Z"/><circle fill="current" cx="12" cy="15" r="1"/></svg>
